<svg xmlns="http://www.w3.org/2000/svg" viewBox="0 0 1941 873">
  <path d="M1627 868c-13-6.74 36.3-15.4 28.2-12.5 15.9-3.78 43.2-.082 36.2-24.9-1.73-36.5-1.06-73.3-6.08-110-20.4-7.31-37.8-10-49.5-17.9-24.6-13-36.8-39.6-44.7-64.5-7.02-22.7-4.36-52.3-10.2-74.4-7.2.096-28.4-2.11-33.1-9.5-14.3-6.49-22.9-18.1-24.5-30.1-4.98-13.9 21.6-26.7 33.2-13.6 13.9 6.71 27.6 36.9 22.8 2.72.633-23.3-1.34-56.5 25.8-61.9 25.8-3.44 32.8 26 34.1 47.7 7.44 43.7-10.2 91.9 6.74 134 6 11.7 17.3 30 35.6 30-1.84-25.5-4.55-53-6.38-79.2-4.55-16.8-8.18-68.4-3.09-60.7-.661-40.7 1.8-82.8 3.33-123-2.22-15.7 10.9-42 .94-51.3-13.1-3.81-20.6-14-32.7-24.6-17.3 3-32.6-1.82-38.3-11.3-21.5 2.4-16.6-16.2-1.64-17.7-3.04-11.3-10.4-22.3 5.19-24.5 17.6 4.26.776-36 28.4-20.7 4.31 10.5 19.3-23.9 28.5-.837 12.6-16.8 26.6-2.23 14 15.2 24.7-5.46-5.4 29 6.5 39.3 6.45 24.4 20.7-14.1 15.6-8.32 13.5-21 44.2-19.1 59 1.53 7.18 13.2 11.3 29 15.6 46.9 3.06 80 2.01 163-1.67 243 25.7-12.4 29.2-34.8 35.3-57.4 4.39-42.6-1.7-88.5-1.75-132 4.15-13.8 1.28-42.5 23.5-45.9 21-6.69 32.6 13 36 27.9 8.45 20.3 10.2 36.9 9.5 40.3 3.85-4.91 19.4-35 21.5-10 2.61 18 23.5-.263 34.1 8.5.619 10.9-13.7 31.5 1.85 33.5 10.6 10.8 6.19 24.9-11.8 24.7-6.57 5.16-3.35 33.1-23.8 19.4-11.6-12-30.6 4.86-24.1 21.2-2.65 14.3-16 52.6-9.31 49.2-2.66 27.4-20.9 46-44.5 62.3-11.2 3.87-30.8 10.3-37.7 12.3-22.6 3.56-7.28 37.3-11.8 53.6-.033 32.1 3.11 60.9.199 93.1 5.1 20.1-13.2 57.5 14 62.2 16.3 3.85 40.1 6.39 49.8 15.5-18 6.29-48.3.604-70.6 2.68-46-.495-92.3 1.57-138-.53z"/>
  <path fill="#d4aa00" d="M1955 550c-13.2-14.8-5.33-47-7.29-68.7 21.6-22.3 15.6 26.7 15.5 41-1.83 8.46 4.98 28.7-8.2 27.8zm50.1-35c-9.97-11.1-15.6-25.2-20.9-40.7.871-27.7 33.4 20.2 19 4.27.722 8.22 21.2 39.2 1.88 36.4zm-104 .044c-9.63-12 9.06-30.6 9.75-42.2 5.52-16 23.9-2.41 13.7 10.4-8.19 11.3-6.54 27.4-21.2 32.2z" transform="translate(-630 -228)"/>
  <path fill="#a02c2c" d="M958 1100c-40-2.12-61-59.3-33.4-92.5 16.9-20 42.3-30.5 66.1-34.6 14.6-.485 39.1-6.08 24.2-23.8-8.02-19.5-31.8-18.5-42.2-7.17-10.6 19.1-29.5 23.2-46.2 11.1-7.6-33.9 28.5-58.1 58.9-56.5 21.9-1.05 48.8 6.36 62 22.1 34 35.2 22.6 89.2 22.9 134 5.59 10 38.4 16.2 15.1 35.6-15.6 16.3-47.6 13.3-54.9-3.51-6.45-17.7-26.2 14-41.3 11.5-2.01 4.4-23.6 5.47-31.4 3.86z" transform="translate(-630 -228)"/>
</svg>
